<?xml version="1.0" encoding="UTF-8"?>
<svg version="1.1" xmlns="http://www.w3.org/2000/svg" width="250" height="239">
<path d="M0 0 C82.5 0 165 0 250 0 C250 78.87 250 157.74 250 239 C167.5 239 85 239 0 239 C0 160.13 0 81.26 0 0 Z " fill="#FE0000" transform="translate(0,0)"/>
<path d="M0 0 C55.44 0 110.88 0 168 0 C168 9.50441304 167.87346198 18.39971097 166.8125 27.75 C166.68302979 28.94302734 166.55355957 30.13605469 166.42016602 31.36523438 C166.04443545 34.78946229 165.65971692 38.21242695 165.26940918 41.63500977 C164.97768022 44.19593264 164.68846642 46.75713306 164.39941406 49.31835938 C163.75183037 55.04631079 163.09611485 60.77330754 162.4375 66.5 C162.33176666 67.42292847 162.22603333 68.34585693 162.11709595 69.29675293 C161.05054164 78.57582709 159.92104026 87.81908225 158.44458008 97.04345703 C157.66331189 102.23904067 157.15436232 107.4612992 156.625 112.6875 C155.51966551 123.25808028 154.36585953 133.82183036 153.14178467 144.37930298 C152.96409096 145.91669304 152.7880217 147.45427173 152.61358643 148.99203491 C152.36903888 151.14494649 152.11889517 153.29713414 151.8671875 155.44921875 C151.72394043 156.69018311 151.58069336 157.93114746 151.43310547 159.2097168 C151 162 151 162 150 163 C148.22191884 163.18249873 146.43700604 163.29882804 144.65185547 163.38891602 C143.50490204 163.44890274 142.35794861 163.50888947 141.17623901 163.57069397 C139.91925201 163.63115402 138.66226501 163.69161407 137.3671875 163.75390625 C136.0691922 163.81907944 134.7711969 163.88425262 133.43386841 163.95140076 C130.66471601 164.08981334 127.89541771 164.22467238 125.12597656 164.35717773 C122.33112385 164.49116162 119.53656741 164.62968764 116.7421875 164.77319336 C107.49686075 165.24771465 98.25149989 165.66137724 89 166 C87.84930023 166.04413025 86.69860046 166.0882605 85.51303101 166.13372803 C82.37445366 166.24181793 79.23752887 166.31409552 76.09765625 166.37109375 C75.20251312 166.40336563 74.30737 166.43563751 73.38510132 166.46888733 C64.14540885 166.54526714 57.27939852 162.32484304 50 157 C50 156.34 50 155.68 50 155 C50.77263184 154.9498877 51.54526367 154.89977539 52.34130859 154.84814453 C56.01930954 154.60866448 59.69718253 154.36727779 63.375 154.125 C64.05170746 154.08053741 64.72841492 154.03607483 65.42562866 153.99026489 C74.72777183 153.37719432 84.02052141 152.69105855 93.3125 151.9375 C105.86202116 150.92902157 118.4178874 150.40145262 131 150 C131.10546143 149.08001221 131.21092285 148.16002441 131.31958008 147.2121582 C134.8638673 116.40205207 134.8638673 116.40205207 136.5625 105.0625 C137.90488107 96.09159779 138.90394288 87.09648508 139.87524414 78.07861328 C140.73897049 70.13683236 141.7510278 62.22865802 142.87060547 54.31933594 C144.07759184 45.69437942 145.05483553 37.04584863 145.99804688 28.38842773 C146.11470703 27.33856689 146.23136719 26.28870605 146.3515625 25.20703125 C146.50359131 23.80674683 146.50359131 23.80674683 146.65869141 22.37817383 C147 20 147 20 148 17 C104.77 17 61.54 17 17 17 C16.67 19.64 16.34 22.28 16 25 C15.43290099 27.68373617 14.83927438 30.33788054 14.1875 33 C14.01081787 33.73565186 13.83413574 34.47130371 13.65209961 35.22924805 C11.81831445 42.8319343 9.91351448 50.41706387 8 58 C7.36269301 60.52795063 6.7261515 63.05608481 6.09155273 65.5847168 C5.65847963 67.30811819 5.22312655 69.03094838 4.78540039 70.75317383 C3.8407888 74.49628379 2.92832967 78.22950249 2.19140625 82.01953125 C1.96324219 83.16808594 1.73507813 84.31664063 1.5 85.5 C1.23703125 86.96953125 1.23703125 86.96953125 0.96875 88.46875 C-0.98729934 93.57971763 -6.07950861 95.76055308 -10.6875 98.25 C-12.11642578 99.03117187 -12.11642578 99.03117187 -13.57421875 99.828125 C-16 101 -16 101 -18 101 C-17.4643853 93.24167345 -16.29523802 85.79073587 -14.6875 78.1875 C-14.23401424 75.98732125 -13.78222441 73.78679233 -13.33203125 71.5859375 C-13.10725098 70.48733398 -12.8824707 69.38873047 -12.65087891 68.25683594 C-11.65773283 63.28738035 -10.76217787 58.30178613 -9.875 53.3125 C-8.83090065 47.45210473 -7.73552224 41.62333533 -6.4375 35.8125 C-5.05135407 29.55224313 -4.03653802 23.25998152 -3.08959961 16.92114258 C-2.23123168 11.22248245 -1.13408409 5.67042047 0 0 Z " fill="#C30A0A" transform="translate(47,41)"/>
<path d="M0 0 C5.42895015 8.14342522 1.35862425 21.94718795 -0.28881836 31.17749023 C-0.69069882 33.45563316 -1.05973632 35.73765283 -1.42773438 38.02148438 C-1.68293131 39.49252966 -1.94002472 40.96324748 -2.19921875 42.43359375 C-2.304655 43.10555283 -2.41009125 43.7775119 -2.51872253 44.46983337 C-3.67483662 50.6323235 -6.67662368 53.67662368 -11 58 C-10.34813721 58.55010742 -9.69627441 59.10021484 -9.0246582 59.66699219 C-5.94456633 63.21617317 -6.56019871 66.01429674 -6.71630859 70.54492188 C-7.22005475 76.68004722 -8.21996713 82.69567743 -9.3125 88.75 C-9.52583984 90.01199219 -9.73917969 91.27398437 -9.95898438 92.57421875 C-13.18423089 110.92442726 -13.18423089 110.92442726 -20 116 C-27.67287004 119.20451098 -36.00768267 119.99345092 -44.19433594 120.93530273 C-46.36555764 121.18640798 -48.53419785 121.4544749 -50.703125 121.72460938 C-58.82729821 122.70619061 -66.80887036 123.20448675 -75 123 C-74.39274458 114.63225438 -73.17264488 106.44661975 -71.7421875 98.18359375 C-71.51547789 96.85517942 -71.28916964 95.52669655 -71.06323242 94.19815063 C-70.46228944 90.67029435 -69.85639656 87.14330587 -69.24947357 83.61647415 C-68.62190231 79.96478371 -67.99871274 76.31234651 -67.37548828 72.65991211 C-67.25150602 71.93335073 -67.12752377 71.20678934 -66.99978447 70.45821095 C-66.74967912 68.99251061 -66.49958945 67.52680761 -66.24951553 66.06110191 C-65.87540955 63.86958665 -65.50072671 61.67817061 -65.12594604 59.48677063 C-63.64302122 50.81023457 -62.18194997 42.13043704 -60.75 33.4453125 C-60.58557404 32.44925491 -60.42114807 31.45319733 -60.2517395 30.42695618 C-59.64512279 26.74849242 -59.03922844 23.06992652 -58.43939209 19.39035034 C-58.04297054 16.95900899 -57.64290019 14.52829336 -57.2421875 12.09765625 C-57.12915283 11.39565094 -57.01611816 10.69364563 -56.8996582 9.97036743 C-56.11347588 5.22695175 -56.11347588 5.22695175 -55 3 C-42.9294154 -1.0235282 -11.02696252 -6.99384515 0 0 Z " fill="#FFFAFA" transform="translate(125,72)"/>
<path d="M0 0 C-0.11701687 1.79220576 -0.24415308 3.58375085 -0.375 5.375 C-0.44460937 6.37273437 -0.51421875 7.37046875 -0.5859375 8.3984375 C-1.11186502 12.97301462 -2.09694204 17.48471021 -3 22 C-14.385 23.485 -14.385 23.485 -26 25 C-27.48682284 28.7170571 -28.39795947 31.46836898 -29.0703125 35.30078125 C-29.24433594 36.27724609 -29.41835937 37.25371094 -29.59765625 38.25976562 C-29.77167969 39.26716797 -29.94570312 40.27457031 -30.125 41.3125 C-30.30675781 42.33923828 -30.48851562 43.36597656 -30.67578125 44.42382812 C-31.12198739 46.94841547 -31.56322581 49.47376676 -32 52 C-31.4112207 51.85925049 -30.82244141 51.71850098 -30.21582031 51.57348633 C-23.40032002 49.99226238 -16.67023746 48.47073439 -10 51.25 C-7.42693112 53.50143527 -6.21411083 55.56661237 -5.70581055 58.96948242 C-5.6824142 66.77259816 -7.03131136 74.33937546 -8.39868164 81.99389648 C-8.8095288 84.29585252 -9.20758393 86.59973359 -9.60351562 88.90429688 C-14.10744025 114.84892993 -14.10744025 114.84892993 -17.5625 118.1875 C-25.36119643 122.29953994 -34.91483646 122.60210196 -43.5625 123.625 C-45.1702832 123.82609375 -45.1702832 123.82609375 -46.81054688 124.03125 C-52.92424184 124.76414554 -58.84328582 125.14212771 -65 125 C-64.52651786 121.54086334 -64.04525236 118.08285411 -63.5625 114.625 C-63.36043945 113.14773437 -63.36043945 113.14773437 -63.15429688 111.640625 C-63.02216797 110.69960937 -62.89003906 109.75859375 -62.75390625 108.7890625 C-62.63345947 107.91975098 -62.5130127 107.05043945 -62.38891602 106.15478516 C-62 104 -62 104 -61 102 C-58.68334961 101.40576172 -58.68334961 101.40576172 -55.65234375 100.9296875 C-54.03295898 100.66865234 -54.03295898 100.66865234 -52.38085938 100.40234375 C-50.67639648 100.14130859 -50.67639648 100.14130859 -48.9375 99.875 C-47.79732422 99.69324219 -46.65714844 99.51148438 -45.48242188 99.32421875 C-42.65610667 98.87484646 -39.82873562 98.43382997 -37 98 C-35.71923205 92.3253266 -34.50600385 86.64392853 -33.375 80.9375 C-33.2409375 80.26267578 -33.106875 79.58785156 -32.96875 78.89257812 C-32.64492709 77.26189845 -32.32232727 75.63097597 -32 74 C-33.00804687 74.15726562 -34.01609375 74.31453125 -35.0546875 74.4765625 C-50.22652357 76.48945956 -50.22652357 76.48945956 -56.375 73.1875 C-61.12984565 63.86068738 -56.86356423 50.53726676 -55.17407227 40.6652832 C-54.6872 37.81074112 -54.21867375 34.95360132 -53.75195312 32.09570312 C-53.44379752 30.25762956 -53.13458873 28.4197322 -52.82421875 26.58203125 C-52.68658615 25.7391304 -52.54895355 24.89622955 -52.40715027 24.02778625 C-51.33186216 17.84310923 -50.1483253 11.47382914 -45.9375 6.625 C-41.7567527 4.31224618 -37.69037185 3.70930691 -33 3 C-31.45699219 2.73896484 -31.45699219 2.73896484 -29.8828125 2.47265625 C-19.95079204 0.8411373 -10.07066394 -0.19366661 0 0 Z " fill="#FFF9F9" transform="translate(186,62)"/>
<path d="M0 0 C0.66 0.66 1.32 1.32 2 2 C1.77905964 4.72392228 1.44272027 7.31088432 1 10 C0.77098883 11.59879452 0.54315158 13.19775756 0.31640625 14.796875 C0.06649401 16.44812761 -0.18482169 18.09916839 -0.4375 19.75 C-0.55931641 20.58660156 -0.68113281 21.42320312 -0.80664062 22.28515625 C-0.93103516 23.09339844 -1.05542969 23.90164062 -1.18359375 24.734375 C-1.29243896 25.45850586 -1.40128418 26.18263672 -1.51342773 26.92871094 C-2.04877743 29.20764059 -2.79922225 30.99206158 -4 33 C-7.41109889 34.70554945 -11.2476317 34.05360526 -15 34 C-14.43779003 26.32897817 -13.37685564 18.86530258 -11.9375 11.3125 C-11.75123047 10.31283203 -11.56496094 9.31316406 -11.37304688 8.28320312 C-10.91986013 5.85458699 -10.46213408 3.42692649 -10 1 C-6.56641053 0.07099852 -3.57220172 -0.23296968 0 0 Z " fill="#FF0808" transform="translate(93,138)"/>
<path d="M0 0 C0.14488236 6.22269738 -0.36838788 12.15484832 -1.25 18.3125 C-1.35957031 19.20517578 -1.46914062 20.09785156 -1.58203125 21.01757812 C-2.49872055 27.42957856 -2.49872055 27.42957856 -4.8125 30.0625 C-7.20682075 31.08863746 -9.15456287 31.49665903 -11.75 31.6875 C-12.54921875 31.75324219 -13.3484375 31.81898437 -14.171875 31.88671875 C-14.77515625 31.92410156 -15.3784375 31.96148437 -16 32 C-14.83100289 21.53403763 -13.21936179 11.29783869 -11 1 C-7.2735915 -0.04702186 -3.86986958 -0.07442057 0 0 Z " fill="#FF0505" transform="translate(102,91)"/>
</svg>
